<svg xmlns="http://www.w3.org/2000/svg" width="58" height="58" viewBox="0 0 58 58">
<path fill="#FFF" d="M55.063 55.938V2.812H5.624c3.344 7.813 4.313 19.082 1.644 33.126a73.125 73.125 0 0 1-5.356 16.106C.813 54.463 0 55.938 0 55.938h55.063z"/>
<path fill="#EE7623" d="M55.063 55.938V2.812h-34.12C35.232 6.825 45.32 14.645 45.539 24.395 46.114 48.62 2.857 55.939 2.857 55.939h52.206zM11.169 3.294a20.244 20.244 0 0 1 9.456 10.756A22.031 22.031 0 0 1 22 19.363c4.396.504 8.755 1.29 13.05 2.356v-.038C33.125 12.725 25 5.725 11.169 3.294zm-5.088.625A47.656 47.656 0 0 1 8.75 18.344c3.9.2 7.438.412 10.788.775a20.881 20.881 0 0 0-2.12-6.319A16.875 16.875 0 0 0 6.082 3.937V3.92zM1.913 52.062A33.369 33.369 0 0 0 16.1 37.925c-5.475.544-9.375.688-9.375.675a81.081 81.081 0 0 1-4.813 13.431v.032zm15.356-16.575a30 30 0 0 0 2.575-14.018A186.66 186.66 0 0 0 8.806 20.6 84.706 84.706 0 0 1 7.425 35c-.087.513-.1.625-.206 1.131h.668c3.338-.125 6.026-.287 9.376-.662l.006.018zM6.2 52.281c11.788-1.7 21.512-8.868 26.213-16.937a125.281 125.281 0 0 1-13.475 2.218A33.888 33.888 0 0 1 6.2 52.282zm35.269-20a29.375 29.375 0 0 1-5.9 2.225 31.6 31.6 0 0 1-9.375 11.25c7.175-3.837 12.625-8.456 15.25-13.525l.025.05zm1.425-4.156c.056-1.087-1.831-2.231-5.119-3.288h-.044a21.119 21.119 0 0 1-1.093 7.032c3.8-1.219 6.193-2.5 6.25-3.75l.006.006zm-5.356-5.7v.05a22.275 22.275 0 0 1 5.625 2.5c0-.144 0-.269-.038-.394-.456-6.587-5.625-12.218-13.75-16.162C33.962 12.4 36.8 17.05 37.538 22.4v.025zm-15.32-.65a33.844 33.844 0 0 1-2.274 13.419 114.9 114.9 0 0 0 13.837-2.556 18.375 18.375 0 0 0 1.625-8.494 104.6 104.6 0 0 0-13.181-2.375l-.006.006z"/>
</svg>
