<?xml version="1.0" encoding="UTF-8" standalone="no"?>
<svg
   xmlns="http://www.w3.org/2000/svg"
   width="801pt"
   height="294.00003pt"
   viewBox="0 0 801 294.00003"
   version="1.1">
  <rect
     style="opacity:1;vector-effect:none;fill:#d4000c;fill-opacity:1;fill-rule:evenodd;stroke:none;stroke-width:0.97578305;stroke-linecap:butt;stroke-linejoin:miter;stroke-miterlimit:4;stroke-dasharray:none;stroke-dashoffset:0;stroke-opacity:1"
     id="rect842-1"
     width="400.5"
     height="294.00003"
     x="400.5"
     y="-5.6843419e-14" />
  <rect
     style="opacity:1;vector-effect:none;fill:#001a65;fill-opacity:1;fill-rule:evenodd;stroke:none;stroke-width:0.97578299;stroke-linecap:butt;stroke-linejoin:miter;stroke-miterlimit:4;stroke-dasharray:none;stroke-dashoffset:0;stroke-opacity:1"
     id="rect842"
     width="400.5"
     height="294"
     x="1.110223e-16"
     y="3.0517578e-05" />
  <g
     id="#ffffffff"
     transform="translate(-0.9099924,3.0802967e-5)">
    <path
       d="m 63.45,45.46 c 61.02,0.07 122.05,0.07 183.07,0 -0.15,23.59 0.02,47.18 -0.06,70.77 -16.27,0.43 -32.57,0.03 -48.85,0.24 0.14,44.47 -0.1,88.93 0.12,133.4 -29.24,0.27 -58.49,0.13 -87.73,0.05 -0.08,-44.52 0.15,-89.06 -0.11,-133.58 -15.44,0.04 -30.9,0.28 -46.33,-0.12 -0.14,-23.59 0.02,-47.18 -0.11,-70.76 z"
       id="path2"
       style="opacity:1;fill:#ffffff" />
    <path
       d="m 356.18,249.98 c 0.12,-68.2 -0.16,-136.41 0.14,-204.61 14.92,0.3 29.86,0.03 44.79,0.14 41.18,0.01 82.36,0.02 123.54,0 -0.01,16.99 -0.01,33.99 -0.01,50.98 -26.4,-0.04 -52.81,0.01 -79.21,-0.02 0.02,11.98 0,23.96 0.01,35.94 19.23,-0.02 38.47,-0.01 57.7,0 0.24,18.31 0.1,36.63 0.07,54.95 -19.26,0 -38.52,0.07 -57.79,0.05 0.03,20.86 0.01,41.73 0.01,62.59 -14.7,0.01 -29.4,-0.02 -44.09,0.02 -15.06,-0.05 -30.11,0.02 -45.16,-0.04 z"
       id="path4"
       style="opacity:1;fill:#ffffff" />
    <path
       d="m 626.76,69.74 c 31.53,-8.18 63.07,-16.31 94.63,-24.38 -0.11,68.21 -0.01,136.42 -0.05,204.64 -31.56,0 -63.12,0 -94.68,0 0.06,-60.09 -0.13,-120.18 0.1,-180.26 z"
       id="path6"
       style="opacity:1;fill:#ffffff" />
  </g>
</svg>
