<?xml version="1.0" encoding="UTF-8"?>
<svg width="94px" height="94px" viewBox="0 0 94 94" version="1.1" xmlns="http://www.w3.org/2000/svg" xmlns:xlink="http://www.w3.org/1999/xlink">
    <defs>
        <radialGradient cx="-0.877557579%" cy="-9.04386717%" fx="-0.877557579%" fy="-9.04386717%" r="126.516176%" id="radialGradient-1">
            <stop stop-color="#009BBD" offset="0%"></stop>
            <stop stop-color="#009BBD" offset="17.35%"></stop>
            <stop stop-color="#1B296B" offset="100%"></stop>
        </radialGradient>
    </defs>
    <g id="Symbols" stroke="none" stroke-width="1" fill="none" fill-rule="evenodd">
		<rect id="Rectangle-path" fill="url(#radialGradient-1)" x="0" y="0.150674526" width="94.0566758" height="93.76978"></rect>
		<g id="Castle" transform="translate(23.174114, 18.583192)" fill="#FFFFFF">
			<g id="Group" transform="translate(0.000000, 0.000000)">
				<path d="M40.3531855,4.11843704 C38.2372881,2.96326568 36.2221478,2.05921852 33.5017083,1.40629558 L33.5017083,6.98125304 C35.9198767,7.5337263 38.2372881,8.38754861 40.3531855,9.34182061 L40.3531855,4.11843704 Z" id="Shape"></path>
				<path d="M31.0331614,22.4002795 C30.3782408,22.4002795 29.8240772,22.9527528 29.8240772,23.6559006 L29.4714276,35.0569397 L32.6956522,35.0569397 L32.2926241,23.6559006 C32.2422456,22.902528 31.788839,22.4002795 31.0331614,22.4002795 Z" id="Shape"></path>
				<path d="M33.9047364,53.7908058 C30.4789978,53.7908058 28.0608294,52.9872083 24.9373618,51.4302382 C21.6123803,49.7225936 17.8843706,48.2660732 13.1487908,48.2660732 C8.71548201,48.2660732 3.97990219,49.8230433 0.352649561,55.1971014 C4.68520131,52.5351847 8.6651035,51.6813624 12.0404636,51.6813624 C15.6173377,51.6813624 18.3881557,52.5854096 21.1589737,54.04193 C24.3328197,55.6993498 27.0532592,56.8545211 31.0331614,56.8545211 C34.861928,56.8545211 39.1944798,55.3980007 42.9224894,50.5261911 C39.9501574,52.9872083 36.7763114,53.7908058 33.9047364,53.7908058 Z" id="Shape"></path>
				<path d="M14.9624171,46.407754 C17.9851276,46.407754 21.5116232,47.2615763 25.4915254,49.4212445 L25.4915254,38.1708799 L23.8290346,36.1116614 L23.8290346,20.4415107 L27.0532592,15.4692513 L25.6930395,20.2406113 C26.5998526,20.1401616 27.5066658,20.039712 28.5142359,20.039712 C31.688082,20.039712 34.6100355,20.5921852 37.0785824,21.5464572 L40.302807,18.5831915 L40.302807,10.5472168 C38.1869096,9.59294482 35.8694982,8.78934735 33.4513298,8.18664925 C31.9903531,7.83507535 30.4286193,7.58395114 28.816507,7.38305177 L28.816507,0.401798736 C27.1036377,0.150674526 25.3403899,0.050224842 23.5267636,0.050224842 C21.8138943,0.050224842 20.101025,0.150674526 18.4889127,0.351573894 L18.4889127,6.98125304 C16.9271789,7.18215241 15.3654452,7.48350146 13.9044684,7.83507535 L13.9044684,1.30584589 C11.284786,2.00899368 8.81623903,3.06371536 6.54920614,4.31933641 L6.54920614,17.9302686 L9.67267368,20.8935343 L8.76586052,36.1618862 L6.24693508,38.6731283 L6.24693508,47.5127005 L7.10336973,48.4167477 C9.2192671,47.3118012 11.8389496,46.407754 14.9624171,46.407754 Z M14.5090105,23.6559006 C14.5090105,22.9527528 15.0631741,22.4002795 15.7180947,22.4002795 C16.3730153,22.4002795 16.9271789,22.9527528 16.9271789,23.6559006 L17.330207,35.0569397 L14.1059824,35.0569397 L14.5090105,23.6559006 Z" id="Shape"></path>
			</g>
		</g>
    </g>
</svg>