<?xml version="1.0" encoding="UTF-8" standalone="no"?><svg xmlns="http://www.w3.org/2000/svg" width="82.875313mm" height="46.381088mm" viewBox="0 0 293.65268 164.34244" version="1.1"><g transform="translate(-501.74506,-246.24835)"><g><path style="fill:#231f20;fill-opacity:1;fill-rule:nonzero;stroke:none" d="m 599.44217,294.57403 0,-7.503 c 2.959,-0.0581 6.43125,-0.0971 9.46688,0.005 0.15774,0.006 0.26362,0.36525 0.37112,0.37263 0.65675,0.0478 1.08788,0.23337 1.67325,0.19775 l 5.57525,1.09862 c 2.02388,0.53225 3.86138,1.27438 5.66888,2.07025 2.84824,1.251 5.51612,2.731 7.80762,4.585 2.7045,2.19725 5.05575,4.77438 6.912,7.82375 2.1525,3.54338 3.6225,7.8125 4.335,12.77588 0.1475,1.03275 0.16375,2.146 0.34875,3.11625 l -0.002,5.121 c -0.73,10.36187 -5.365,17.1245 -11.79188,21.90575 -1.83162,1.36137 -3.78324,2.58212 -5.94149,3.6035 l -2.124,1.03425 c -0.23775,0.12787 -0.26763,0.47612 -0.23775,0.81637 0.69425,7.38425 2.67825,13.479 5.86525,18.33738 3.13737,4.78662 7.71362,8.28225 14.59862,9.30225 0.0725,0.0102 0.2925,0.004 0.38875,0.004 0.03,2.90712 0.13875,5.88862 0.0425,8.70362 -7.53,-0.47762 -12.7765,-3.41613 -17.33213,-6.95762 -0.21737,-0.16601 -0.42825,-0.34763 -0.62987,-0.53125 -3.668,-3.27099 -6.47463,-7.40674 -8.44975,-12.36274 -1.52588,-3.8355 -2.63038,-8.22164 -3.09325,-13.09325 -0.0351,-0.36138 -0.14163,-0.70563 -0.2085,-1.05713 -0.0176,-0.083 -0.147,-0.22462 -0.23438,-0.21238 -0.97312,0.10587 -1.91062,0.26126 -2.77487,0.46875 -0.1285,0.0277 -0.23688,0.27188 -0.23688,0.46387 l 0,19.89738 c 0,0.14412 -0.15862,0.17675 -0.25537,0.18162 -3.02588,0.064 -6.20212,0.1065 -9.10737,0.0123 -0.11475,-10e-4 -0.36375,-0.16362 -0.36375,-0.18312 0.0902,-5.74563 0.0317,-12.0175 -0.009,-17.58638 l -0.1381,-19.46057 -0.12363,-42.94963 z m -16.8075,-8.86875 c 2.16788,-0.0439 4.72013,-0.061 6.97263,0.0586 0.12687,2.97125 0.0356,6.15725 0.0479,9.15288 l 0.34762,69.51699 c 0,3.34375 -0.009,6.55675 -0.0489,10.03175 0,0.10163 -0.0479,0.28075 -0.20012,0.28713 -3.04938,0.125 -6.2925,0.18025 -9.36288,-0.0318 -0.0561,-6.0415 -0.13425,-12.12887 -0.0269,-18.0825 l -0.10737,-7.8135 c -0.003,-0.21875 -0.23775,-0.43112 -0.4575,-0.43212 -7.64063,-0.082 -15.95213,-0.0902 -23.854,0 -0.1025,10e-4 -0.21638,0.12212 -0.231,0.21825 -0.38088,3.34375 -0.48675,6.91075 -0.67325,10.53625 -0.109,2.14687 -0.10313,4.48575 -0.13,6.95312 -0.0937,0.245 -0.10838,0.537 -0.11325,0.82362 -0.0326,2.64313 0.0464,5.21875 -0.0625,7.79688 -2.96725,0.005 -5.87638,0.19825 -8.87638,-0.004 -0.21637,-4.6665 0.19375,-8.96976 0.12938,-13.7265 -0.004,-0.0358 0.17187,-0.16026 0.17187,-0.20663 -0.0148,-1.28663 -0.0343,-2.583 0.11713,-3.7925 0.1465,-1.17087 0.15875,-2.55612 0.18162,-3.8085 0.209,-0.32475 0.13575,-0.69725 0.16513,-1.04013 l 0.0879,-2.36474 c 0.205,-0.34025 0.13662,-0.74313 0.16937,-1.09863 0.061,-0.70312 0.0732,-1.438 0.13238,-2.11525 0.008,-0.0927 0.11087,-0.249 0.11662,-0.37587 0.0445,-0.78038 0.006,-1.6065 0.15775,-2.2525 0.12938,-0.57375 0.18163,-1.16313 0.15288,-1.78325 0.23775,-0.32225 0.20262,-0.73963 0.2255,-1.14888 0.0522,-1.03275 0.36387,-1.81887 0.32475,-2.9395 0.13825,-0.25487 0.20262,-0.58437 0.209,-0.98475 0.003,-0.15137 0.0171,-0.6055 0.0288,-0.63725 0.22862,-0.459 0.26425,-0.97662 0.24075,-1.40137 0.20512,-0.43463 0.18075,-0.91063 0.26612,-1.34275 0.2075,-1.062 0.32813,-2.19 0.57125,-3.30125 0.35988,-1.63388 0.76813,-3.39413 1.13438,-5.1505 0.0287,-0.13913 0.0669,-0.45263 0.17575,-0.71375 0.1465,-0.34825 0.33637,-0.82913 0.272,-1.43713 0.26125,-0.0731 0.20262,-0.33687 0.25725,-0.516 0.0562,-0.2115 -0.14013,-0.53125 0.18212,-0.6265 0.12938,-0.95562 0.44775,-1.68062 0.6675,-2.39012 0.0445,-0.13925 0,-0.3575 0,-0.42875 0.191,-0.0459 0.22025,-0.24613 0.24313,-0.40238 0.01,-0.0771 -0.0229,-0.33837 0.01,-0.36912 0.2245,-0.19963 0.31637,-0.543 0.287,-0.93113 0.20762,-0.123 0.2305,-0.3565 0.24912,-0.56737 0.0108,-0.165 -0.0625,-0.43213 0.1865,-0.48338 0.0415,-0.524 0.311,-0.80225 0.40188,-1.34275 0.16937,-0.14462 0.246,-0.43512 0.25725,-0.74762 0.18162,-0.19138 0.26962,-0.4805 0.24662,-0.793 0.22213,-0.14888 0.19038,-0.5205 0.3305,-0.68163 0.20313,-0.2305 0.25538,-0.582 0.209,-0.95162 0.20763,0.0986 0.20513,-0.15188 0.272,-0.24713 0.0762,-0.10937 0.0356,-0.25387 0.0381,-0.3755 0.19625,-0.0732 0.22563,-0.3505 0.27588,-0.454 0.34175,-0.69487 0.53812,-1.36775 0.82275,-1.9815 0.0351,-0.0718 0,-0.2305 0,-0.28712 0.25536,0.12281 0.19286,-0.17019 0.23186,-0.29719 0.0294,-0.10988 0.0757,-0.19188 0.13438,-0.29288 0.26362,-0.462 0.4125,-0.961 0.72987,-1.39562 0.0406,-0.0551 -0.0682,-0.27488 0.15725,-0.28563 0.36375,-0.85537 0.80375,-1.66987 1.25788,-2.47162 0.0317,-0.0601 0.17575,-0.22025 0.23037,-0.28225 -0.0903,-0.19138 0.11725,-0.32225 0.13538,-0.3525 0.53612,-0.982 1.05512,-1.80813 1.56975,-2.648 0.42487,-0.69575 0.92675,-1.35738 1.4395,-1.9995 0.082,-0.1025 0.20987,-0.29688 0.18062,-0.48975 0.14163,0.0689 0.21488,-0.0913 0.27838,-0.17188 l 2.63425,-3.26762 c 0.36625,-0.38863 0.73237,-0.73975 1.12787,-1.11563 1.75538,-1.65825 3.55963,-3.24125 5.71288,-4.49762 l 1.0025,-0.51025 c 2.77687,-1.4975 5.8735,-2.64988 9.98637,-2.73538 z m -77.26422,-1.17425 c 4.75782,0.0625 9.58839,-0.188 14.02197,0.25538 0.82525,0.0815 1.63088,0.30362 2.49263,0.35637 0.17,0.0107 0.47462,-0.0121 0.62112,0.0806 0.21388,0.14263 0.45075,0.0791 0.6475,0.122 1.96625,0.4175 3.78513,0.95225 5.56,1.504 1.272,0.604 2.68075,1.01075 3.92338,1.62938 0.48337,0.23775 0.85787,0.56 1.36812,0.77487 0.80813,0.33838 1.626,0.9355 2.32575,1.42875 l 1.70313,1.26075 c 0.0791,-0.0376 0.14837,0.0317 0.10837,0.11963 2.11425,1.73337 3.92825,3.772 5.43463,6.07662 0.60537,0.92525 1.15137,1.89213 1.64937,2.915 1.97113,4.065 3.09663,8.81988 3.13088,14.81938 l 0.039,2.75387 c -0.3135,3.55225 -1.01075,6.76025 -2.20363,9.46288 -2.73037,6.169 -7.4765,10.46925 -13.50575,13.34912 -4.36875,2.0835 -9.25737,3.6255 -15.1026,4.20413 -0.26318,0.166 -0.57715,0.11237 -0.96386,0.1255 -0.4751,0.021 -0.97804,0.0293 -1.36524,0.21237 -0.12891,0.35888 -0.11083,0.88775 -0.10596,1.36375 0.0625,9.02687 0.17334,18.22512 0.0244,27.15587 -0.006,0.10488 0.002,0.29688 -0.13183,0.29688 -3.11133,-0.0616 -6.26953,-0.0494 -9.42285,-0.0553 l -0.0352,-21.80906 -0.29541,-63.82851 0.082,-4.57425 z m 174.48547,4.498 c 0.37625,-0.10837 0.7,-0.102 1.1125,-0.11475 4.91125,-0.13137 8.86625,0.6475 12.10625,2.24175 3.85625,1.90038 6.62125,4.97063 8.40625,8.92038 1.335,2.96387 2.155,6.51762 2.14875,10.66062 0,0.17 -0.19875,0.26513 -0.32625,0.27 -2.73125,0.0709 -5.40125,0.168 -8.055,-0.0356 -0.125,-0.33537 -0.0613,-0.8505 -0.0875,-1.23437 -0.305,-4.50925 -2.0825,-7.67525 -4.89,-9.69338 -3.02875,-2.56737 -9.84375,-3.20212 -14.17625,-1.36712 -2.7575,1.17187 -4.74625,3.08837 -5.9675,5.77637 -1.23125,2.69925 -1.79625,7.38188 -0.6725,10.58 1.30375,3.71688 4.1225,5.96925 7.37875,7.74613 2.7125,1.48437 6.16125,2.29737 9.63875,3.0205 2.29375,0.71775 4.4825,1.50737 6.46,2.57275 3.805,2.05225 6.95125,4.78375 9.2475,8.37987 0.46375,0.72275 0.8475,1.5625 1.26,2.33263 2.1675,4.0395 3.2375,10.4995 2.15375,16.44276 -1.1425,6.30037 -3.59125,11.3175 -7.44625,14.91612 -3.405,3.17375 -8.03125,5.163 -14.3175,5.44425 -6.25,0.27738 -11.52625,-0.95987 -15.4775,-3.2705 -3.595,-2.09963 -6.29375,-5.188 -8.11375,-9.20262 -0.0137,-0.0307 -0.0937,-0.13575 -0.1525,-0.26263 -1.5775,-3.53525 -2.3375,-8.05037 -2.28125,-12.95175 0,-0.13762 0.0437,-0.48338 0.15125,-0.48438 l 8.685,-0.0161 c 0.1075,0.001 0.27125,0.0845 0.275,0.18213 0.0763,4.38975 0.8375,8.11525 2.4225,10.94825 1.27375,2.27687 3.1175,4.03475 5.505,5.171 0.7475,0.35537 1.53625,0.62 2.35875,0.90225 3.11125,1.05325 7.14875,0.34187 9.665,-0.74463 3.935,-1.69337 6.9525,-4.39112 8.55125,-8.42675 0.0775,-0.19387 -0.0588,-0.52737 0.22375,-0.57862 0.72875,-2.208 1.05625,-4.73488 0.94625,-7.69138 -0.0125,-0.17338 -0.0675,-0.4395 -0.095,-0.66163 -0.6875,-6.04975 -3.96625,-9.73137 -8.29625,-12.17775 -2.37375,-1.34274 -5.48125,-1.96286 -8.37875,-2.80511 -4.9075,-1.42338 -9.24375,-3.45663 -12.68875,-6.37988 -3.8175,-3.23487 -6.97625,-7.30225 -7.6025,-13.63037 -0.12375,-1.2515 -0.1025,-2.67488 -0.006,-3.96388 0.3725,-5.13287 1.8925,-9.20025 4.225,-12.4985 0.80625,-1.13825 1.6725,-2.22812 2.71875,-3.11825 1.15125,-0.98087 2.31625,-1.94675 3.7475,-2.6255 l 2.1235,-0.97312 c 1.1075,-0.42825 2.19125,-0.77975 3.43625,-1.02975 0.77,-0.15775 1.65,-0.31888 2.50125,-0.41413 0.42,-0.2085 1.07875,-0.0107 1.5825,-0.15525 z m -70.58462,6.72663 c -0.04,0.0781 -0.18163,0.271 -0.18163,0.36375 l 0.0391,14.8765 0.18062,34.141 c 0.006,0.10012 0.144,0.20275 0.20263,0.20275 l 0.84325,-0.023 c 4.09087,-0.68363 7.50875,-2.08638 10.5825,-3.79788 1.80175,-1.00587 3.43662,-2.19087 4.895,-3.53612 1.56749,-1.44038 2.96875,-3.09575 4.03475,-4.98288 0.0766,-0.13675 0.1465,-0.24662 0.12937,-0.3565 0.28663,-0.15137 0.228,-0.5395 0.4415,-0.73725 1.75,-3.3575 2.7575,-7.8985 2.35875,-12.95125 -0.48625,-6.17575 -2.73337,-10.69912 -5.98287,-14.14062 -3.88188,-4.11125 -9.05513,-6.99463 -15.34763,-8.62788 -0.70312,-0.17925 -1.35162,-0.4355 -2.19537,-0.43062 z m -94.07223,-2.99563 c -0.16113,0.0351 -0.21338,0.1635 -0.21338,0.23438 l 0.0171,26.38525 0.11719,17.43362 c 0.003,0.1635 0.16456,0.371 0.30763,0.36613 1.91063,-0.0536 3.60108,-0.27825 5.26458,-0.58838 2.61975,-0.48825 4.94538,-1.30362 7.08988,-2.28512 3.03612,-1.38425 5.63387,-3.208 7.61775,-5.66113 1.6235,-2.01512 2.81587,-4.415 3.61175,-7.3315 0.0186,-0.0523 -0.0928,-0.45075 0.11237,-0.293 0.13663,-0.41012 0.0488,-0.96675 0.205,-1.38037 0.14013,-0.3765 0.18463,-0.83738 0.1465,-1.333 0.29788,-1.753 0.34763,-4.20563 -0.0146,-5.87213 -0.31987,-4.4135 -1.998,-7.54637 -3.9795,-10.3305 -2.23725,-2.78562 -5.17087,-4.9375 -8.62212,-6.503 -3.01363,-1.36425 -6.44775,-2.3545 -10.39644,-2.7925 -0.41015,-0.0439 -0.90576,-0.1235 -1.26366,-0.0488 z m 129.26185,-5.252 c 3.3425,0.0356 6.51375,-0.13525 9.705,0.0102 0.275,0.0122 0.2575,0.30375 0.2575,0.45363 l 0.14875,23.8745 0.18875,38.19187 0.0412,24.49963 c 0,0.2255 -0.2675,0.18787 -0.39875,0.18888 -3.0125,0.0786 -6.36,0.11375 -9.34625,-0.003 -0.0688,-0.002 -0.23375,-0.13912 -0.23375,-0.25787 l -0.3375,-86.90088 -0.025,-0.0566 z m -65.0075,6.94638 c -3.36912,1.13525 -5.63712,3.46525 -7.7285,5.88225 -3.09025,3.56787 -5.39887,7.8955 -7.33,12.57712 -3.108,7.5415 -5.30525,15.896 -6.82375,24.937 -0.0343,0.20025 0.2295,0.24425 0.37838,0.24513 7.26562,0.0919 14.74462,0.0953 22.06937,-0.005 0.12063,-0.003 0.19875,-0.18163 0.19875,-0.30613 l 0.0146,-19.72112 c -0.003,-7.62463 -0.21337,-15.6505 -0.149,-23.125 0.002,-0.16213 -0.021,-0.42975 -0.23187,-0.48438 -0.13188,-0.0358 -0.2725,-0.0445 -0.398,0 z m 78.94,108.82612 0,-11.52881 c 1.785,0.0225 3.66625,-0.0576 5.385,0.0498 2.51875,0.16016 3.7275,1.80029 4.14125,4.08253 0.27375,1.49511 0.1825,3.31883 -0.3,4.51025 -0.67125,1.64746 -1.9225,2.79882 -4.0975,2.88379 l -5.12875,0.002 z m 22.37125,0 0,-11.52881 2.28375,0 4.66,7.61865 0.003,-7.61475 2.2,-0.004 0,11.52881 -2.36625,0 -4.60875,-7.47998 0,7.47998 -2.17125,0 z m -158.99625,0 0,-11.52881 2.28463,0 4.65875,7.61474 0,-7.61474 2.20312,0 0,11.52881 -2.36287,0 -4.61325,-7.47998 0,7.47998 -2.17038,0 z m 110.7625,0 0,-11.52881 2.285,0 4.65625,7.62109 0.005,-7.62109 2.19875,0 0,11.52881 -2.36875,0 -4.58625,-7.44776 -0.0225,7.44776 -2.1675,0 z m -76.81812,0 0,-11.52881 2.28562,0 4.65813,7.62109 0,-7.61621 2.20125,-0.005 0,11.52881 -2.36525,0 -4.61138,-7.48242 0,7.48242 -2.16837,0 z m 11.61225,0 0,-11.52881 2.28375,0 4.662,7.625 0.002,-7.6211 2.19725,-0.004 0,11.52881 -2.36325,0 -4.61375,-7.48242 0,7.48242 -2.168,0 z m 52.39162,-11.52491 2.51025,-0.004 4.6015,11.52881 -2.56587,0 -0.98725,-2.5503 c -0.0494,-0.12353 -0.18663,-0.0425 -0.252,-0.0425 l -4.3355,-0.0185 -0.94338,2.59863 c -0.73087,0.0337 -1.663,10e-4 -2.50237,0.0103 l 4.47462,-11.52247 z m 50.288,11.52491 0,-11.52881 8.5775,0 0.002,1.97363 c -0.19125,0.0586 -0.5375,0.0176 -0.7825,0.0176 l -5.4175,0 -0.006,2.52099 5.75,0 0,1.9917 -5.7475,-0.005 0.004,3.0713 6.42625,0.004 0,1.95508 -8.80625,0 z m -125.05262,0 0,-11.52881 8.57612,0 0.01,1.95996 c 0,0.0801 -0.34612,0.0327 -0.49162,0.0327 l -5.72713,-0.005 0.008,2.5249 5.747,0 0,1.98633 -5.75537,0.001 c 0.0249,1.05126 0.002,2.00488 0.0146,3.07373 l 6.42137,0 0,1.95508 -8.80312,0 z m 33.94187,0 0,-11.52881 8.57075,0 c 0.043,0.61865 -0.006,1.31884 0,1.96728 0,0.0903 -0.1845,0.0254 -0.26262,0.0254 l -5.93663,-0.005 -0.002,2.51514 5.75638,0.006 0,1.99121 -5.66363,0 c -0.13962,0 -0.0738,0.1123 -0.0738,0.14355 l -0.0166,2.92628 6.43313,0.004 0,1.95508 -8.80463,0 z m 13.95313,-11.70265 c 1.57762,-0.14892 3.0175,0.0811 3.90762,0.75392 0.75938,0.56885 1.27788,1.3999 1.32575,2.70996 -0.72075,0.0513 -1.53512,0.0625 -2.34525,0.0723 -0.0738,-0.35986 -0.184,-0.70752 -0.36662,-0.97364 -0.30763,-0.44383 -0.88288,-0.66893 -1.6295,-0.66258 -0.69725,0.002 -1.24213,0.10741 -1.65575,0.38866 -0.27638,0.18506 -0.52238,0.625 -0.31788,1.03662 0.26563,0.53125 0.9215,0.74122 1.54788,0.91212 1.34275,0.36376 2.75,0.6416 3.78862,1.31396 1.36763,0.6914 1.75,3.52881 0.67238,4.84765 -0.6275,0.771 -1.51963,1.2837 -2.75888,1.44727 -1.67762,0.22363 -3.41937,-0.0186 -4.38325,-0.75976 -0.88425,-0.67627 -1.44437,-1.69776 -1.60062,-3.14746 l 2.3165,-0.21143 c 0.17375,1.28857 0.88912,2.09619 2.3115,2.16357 1.18262,0.0567 2.15762,-0.3374 2.36712,-1.29492 0.0396,-0.1836 0.0289,-0.35742 -0.0126,-0.53222 -0.104,-0.47023 -0.50437,-0.68263 -0.9165,-0.83399 -1.147,-0.42138 -2.49025,-0.60986 -3.56937,-1.08252 -0.32375,-0.14014 -0.60688,-0.3374 -0.896,-0.5039 -1.19038,-0.68458 -1.63088,-3.20362 -0.53613,-4.32472 0.5825,-0.77148 1.54688,-1.20507 2.751,-1.31885 z m 107.18887,-0.002 c 1.93375,-0.18896 3.57625,0.22363 4.44125,1.24121 0.45625,0.53614 0.7675,1.24121 0.7925,2.2251 -0.72125,0.0513 -1.53625,0.0625 -2.34375,0.0723 -0.0775,-0.35986 -0.18625,-0.70752 -0.37,-0.97364 -0.30625,-0.44383 -0.8825,-0.66893 -1.6275,-0.66258 -0.69625,0.002 -1.24375,0.10741 -1.65875,0.38866 -0.2725,0.18506 -0.4975,0.61767 -0.32,1.03419 0.15875,0.375 0.535,0.56347 0.91625,0.70116 1.4125,0.50977 3.08875,0.71729 4.29875,1.43604 1.3975,0.62989 1.91375,3.37646 0.8875,4.81152 -0.72625,1.01465 -1.91125,1.57618 -3.5575,1.64209 l -1.20625,-0.004 c -2.41375,-0.18897 -3.81375,-1.55372 -4.06375,-3.9751 l 2.31125,-0.20997 c 0.17375,1.29102 0.8925,2.1001 2.3125,2.16602 1.1175,0.0527 1.9925,-0.29737 2.31375,-1.08008 0.16875,-0.41112 0.07,-0.95849 -0.205,-1.19726 -0.39125,-0.34521 -0.94125,-0.50391 -1.52,-0.65479 -1.26625,-0.32666 -2.58375,-0.61035 -3.53625,-1.26416 -1.16625,-0.60986 -1.715,-2.96338 -0.7625,-4.22119 0.6275,-0.83007 1.58,-1.34716 2.8975,-1.47607 z m -91.142,0 c 1.93163,-0.18896 3.61225,0.21485 4.46825,1.2461 0.457,0.55517 0.79738,1.2412 0.7935,2.229 l -2.34087,0.0723 c -0.0761,-0.38135 -0.17438,-0.71729 -0.36725,-0.98243 -0.29775,-0.41503 -0.80026,-0.63378 -1.47451,-0.66258 -0.62162,-0.0225 -1.22612,0.0601 -1.65,0.28515 -0.3095,0.16748 -0.60637,0.4502 -0.53025,0.92627 0.11038,0.66015 0.80175,0.88233 1.43163,1.07129 1.3785,0.40966 2.8775,0.66112 3.95463,1.36865 1.37449,0.68506 1.74512,3.52881 0.67475,4.84765 -0.687,0.84473 -1.69188,1.36866 -3.09951,1.48878 -1.64262,0.1372 -3.1255,-0.10889 -4.04299,-0.80274 -0.896,-0.68018 -1.459,-1.72608 -1.6055,-3.1626 0.79487,-0.0371 1.51812,-0.12988 2.3135,-0.19482 0.17425,1.30224 0.94087,2.16602 2.37112,2.14013 1.10688,0.10742 2.04538,-0.31151 2.29738,-1.18896 0.164,-0.57129 -0.10313,-1.14502 -0.525,-1.30761 l -3.96188,-1.20459 c -0.331,-0.12159 -0.60062,-0.35645 -0.88962,-0.52295 -1.19388,-0.68115 -1.61238,-3.1875 -0.55913,-4.34473 0.63875,-0.70509 1.51125,-1.18262 2.74175,-1.30127 z m -71.30175,-0.0112 c 0.416,-0.0488 0.88325,-0.0376 1.31638,0 2.20062,0.1875 3.52637,1.39599 4.05425,3.35108 l -2.24513,0.54638 c -0.17825,0.0439 -0.11875,-0.17138 -0.14162,-0.24512 -0.3565,-1.11621 -1.3945,-1.85254 -2.89413,-1.59229 -1.34812,0.2334 -2.04687,1.18848 -2.23087,2.63624 -0.1895,1.48389 -0.0376,3.19482 0.55762,4.18848 0.54925,0.91162 2.44675,1.39501 3.499,0.64159 0.60063,-0.42871 0.97213,-1.11278 1.17775,-2.01122 -0.004,0.0171 -0.0127,-0.0801 0.0956,-0.0488 l 2.20225,0.6587 c -0.59775,2.40234 -2.19775,4.02246 -5.31987,3.79101 -2.80375,-0.36084 -4.35688,-2.11718 -4.667,-4.96485 -0.28463,-2.63133 0.51275,-4.80126 2,-5.93602 0.68462,-0.52149 1.52487,-0.89161 2.59575,-1.01514 z m -32.22172,0.1914 2.55225,-0.004 2.89209,8.5 2.80567,-8.5 2.49365,0 -4.10547,11.52881 -2.53564,0 -4.10255,-11.52491 z m 137.92047,1.9834 0,-1.9873 9.16375,0 c 0.0425,0.59375 0.0238,1.34473 0.0163,1.99121 l -3.4025,0.009 0.009,9.52881 -2.3825,0 0,-9.53126 -3.40375,-0.0102 z m 17.44125,7.58253 c 0.74625,0.005 1.535,-0.0225 2.2425,-0.01 1.33,0.0176 2.13125,-0.61278 2.42125,-1.64501 0.23625,-0.83888 0.26375,-1.8999 0.2025,-2.97901 -0.06,-1.06982 -0.3475,-1.94238 -1.005,-2.43603 -0.22625,-0.16992 -0.49125,-0.31006 -0.80125,-0.38232 -0.86,-0.20899 -2.04,-0.0889 -3.06,-0.11134 l 0,7.56349 z m -143.54433,-9.56593 2.37008,-0.004 0,11.52881 -2.37447,0 0.004,-11.52491 z m 175.07558,0 2.3675,-0.004 0,11.52881 -2.31375,0 c -0.125,0 -0.0588,-0.17627 -0.0588,-0.26026 l 0.005,-11.26465 z m -64.268,-0.004 2.323,0 0,11.52881 -2.37175,0 10e-4,-11.47022 c 0,0.002 0.022,-0.0586 0.0474,-0.0586 z m -27.91937,8.46728 0,-2.2124 4.373,0 0,2.2124 -4.373,0 z m 52.70112,0 0,-2.2124 4.36625,0 0.015,2.2124 -4.38125,0 z m -31.8765,-5.6162 -1.48625,4.08495 3.09375,0 -1.56987,-4.22363 c -0.0449,-0.004 -0.022,0.0952 -0.0376,0.13868" /><path style="fill:#ef2e31;fill-opacity:1;fill-rule:nonzero;stroke:none" d="m 780.57717,356.92403 c -0.72375,5.02101 -3.145,8.38626 -6.11375,11.167 -1.5725,1.47463 -3.3675,2.7285 -5.3175,3.83701 -4.12125,2.34375 -8.995,3.84375 -14.83875,4.46474 -8.615,0.68263 -16.18875,-0.95262 -21.74625,-3.94862 -2.0075,-1.08263 -3.8675,-2.27887 -5.49875,-3.74025 -2.6775,-2.40488 -5.0275,-5.2125 -6.07375,-9.22712 l -0.40625,-2.041 c -0.60875,-6.09038 1.845,-10.26026 4.6525,-13.39601 2.8,-3.13137 6.45375,-5.44187 10.68,-7.08987 3.6575,-1.42813 7.6125,-2.44863 12.44125,-2.6635 5.84,-0.26375 11.1375,0.50287 15.43625,1.99462 4.895,1.70413 9.12375,4.14888 12.215,7.65963 2.31875,2.63425 4.2625,5.7485 4.58625,10.332 0.0662,0.95362 -0.0163,1.774 -0.0163,2.65137 z m -54.8325,-45.62787 c -0.20875,-0.63725 -0.36125,-1.29488 -0.43125,-1.98338 -0.595,-5.78025 1.995,-9.19187 4.76375,-11.94237 4.11,-3.69538 9.59125,-6.04988 16.69625,-6.71488 7.7475,-0.47125 13.98125,1.25238 18.6475,4.21875 2.2875,1.45513 4.32875,3.15188 5.79375,5.4395 3.655,4.13563 2.3575,13.103 -1.395,16.0815 -3.04875,3.33013 -7.165,5.647 -12.21875,7.00775 -7.97125,2.147 -18.175,0.68513 -23.72375,-2.74512 -3.595,-2.22063 -6.7075,-5.02188 -8.1325,-9.36175 z m 64.25375,34.63425 c -1.82375,-4.27588 -4.50875,-7.689 -7.7125,-10.56975 -2.8175,-2.53663 -6.1025,-4.61475 -9.69875,-6.34138 -0.5475,-0.26225 -1.1575,-0.48187 -1.6325,-0.85062 0.49625,-0.39638 0.985,-0.71188 1.46,-1.03613 2.06875,-1.40862 3.9975,-2.97012 5.6025,-4.84375 3.23125,-3.771 6.0275,-8.03025 6.06125,-14.9355 l -0.19125,-2.93462 c -0.0475,-0.433 -0.19375,-0.81875 -0.29,-1.25238 -1.055,-4.77887 -3.4125,-8.30562 -6.255,-11.34525 -1.74375,-1.86275 -3.8475,-3.42037 -6.05625,-4.80075 -6.20875,-3.88912 -14,-6.17337 -24.28625,-5.84225 -7.27,0.49163 -13.2675,2.24213 -18.265,5.07025 -3.29,1.85938 -6.23125,4.10888 -8.56625,6.918 -2.5925,3.11275 -4.7275,6.67238 -5.45,11.62013 -0.14,0.9565 -0.13625,2.00675 -0.205,3.021 -0.025,0.4555 0.12125,0.83587 0.13625,1.24512 0.18625,4.7085 1.94125,7.97013 3.96625,10.9365 2.49375,3.65238 5.88375,6.42825 9.75875,8.71575 0.0987,0.0571 0.39,0.22225 0.1725,0.33213 -2.7475,1.36812 -5.3375,2.98875 -7.7225,4.82225 -3.80875,2.93937 -6.99875,6.55862 -9.19875,11.09612 -2.65375,4.65675 -3.29625,13.50101 -0.9,18.95363 1.2075,3.47563 3.17875,6.21488 5.36125,8.7305 2.22125,2.55963 4.87875,4.69 7.8375,6.5025 7.28375,4.46963 16.04,7.3935 27.9525,7.11613 10.685,-0.25 18.83125,-3.23625 25.6425,-7.48 2.08875,-1.5 4.24375,-2.93013 5.99875,-4.76025 3.8375,-3.98925 7.075,-8.65138 8.0925,-15.41163 0.705,-4.66162 -0.20875,-9.38075 -1.6125,-12.67575" /><path style="fill:#231f20;fill-opacity:1;fill-rule:nonzero;stroke:none" d="m 505.36655,256.94041 4.9126,0 0,13.1025 c 0,2.08 0.0615,3.4275 0.18407,4.0425 0.21143,0.99 0.71437,1.78625 1.51027,2.385 0.79541,0.6 1.88281,0.9 3.26317,0.9 1.40186,0 2.45899,-0.28375 3.17039,-0.85125 0.71237,-0.56625 1.14012,-1.26125 1.28562,-2.08625 0.14463,-0.82625 0.21738,-2.19625 0.21738,-4.11 l 0,-13.3825 4.9125,0 0,12.70875 c 0,2.905 -0.13275,4.9575 -0.39888,6.15625 -0.26612,1.2 -0.75775,2.2125 -1.47362,3.03712 -0.71538,0.82525 -1.67238,1.48288 -2.87113,1.97263 -1.19825,0.48925 -2.76266,0.73437 -4.69283,0.73437 -2.33107,0 -4.09718,-0.26662 -5.30079,-0.80025 -1.20361,-0.53325 -2.15576,-1.22662 -2.854,-2.08012 -0.7002,-0.8525 -1.15967,-1.74625 -1.38184,-2.6825 -0.32178,-1.38625 -0.48291,-3.4325 -0.48291,-6.14 l 0,-12.90625" /><path style="fill:#231f20;fill-opacity:1;fill-rule:nonzero;stroke:none" d="m 530.0443,281.13941 0,-24.199 4.77787,0 10.0195,16.20375 0,-16.20375 4.5605,0 0,24.199 -4.92725,0 -9.87012,-15.85025 0,15.85025 -4.5605,0" /><path style="fill:#231f20;fill-opacity:1;fill-rule:nonzero;stroke:none" d="m 554.44717,281.13941 4.91358,0 0,-24.19925 -4.91358,0 0,24.19925 z" /><path style="fill:#231f20;fill-opacity:1;fill-rule:nonzero;stroke:none" d="m 570.30742,281.13941 -8.725,-24.199 5.33738,0 6.18162,17.91 5.98488,-17.91 5.22062,0 -8.7455,24.199 -5.254,0" /><path style="fill:#231f20;fill-opacity:1;fill-rule:nonzero;stroke:none" d="m 586.78742,281.13941 0,-24.199 18.06638,0 0,4.10125 -13.15275,0 0,5.35125 12.23287,0 0,4.1025 -12.23287,0 0,6.5425 13.62249,0 0,4.1015 -18.53612,0" /><path style="fill:#231f20;fill-opacity:1;fill-rule:nonzero;stroke:none" d="m 614.42079,267.17416 3.65575,0 c 2.37013,0 3.85,-0.0987 4.44038,-0.29625 0.58938,-0.1975 1.05125,-0.53875 1.38525,-1.0225 0.334,-0.4825 0.5015,-1.0875 0.5015,-1.81375 0,-0.8125 -0.22025,-1.47 -0.66013,-1.97 -0.43949,-0.5 -1.05962,-0.815 -1.86087,-0.9475 -0.40088,-0.055 -1.6025,-0.0825 -3.606,-0.0825 l -3.85588,0 0,6.1325 z m -4.91312,13.96525 0,-24.199 10.3735,0 c 2.60937,0 4.50437,0.2175 5.6865,0.6525 1.18262,0.43375 2.1285,1.2075 2.83887,2.31875 0.7105,1.1125 1.0665,2.385 1.0665,3.815 0,1.81625 -0.53912,3.31625 -1.61575,4.5 -1.07712,1.1825 -2.6865,1.9275 -4.82962,2.2375 1.064,0.615 1.94388,1.2925 2.63625,2.02875 0.69388,0.73625 1.62738,2.04625 2.80325,3.9275 l 2.9825,4.719 -5.89025,0 -3.5635,-5.27275 c -1.2675,-1.8775 -2.13525,-3.06 -2.603,-3.54875 -0.46725,-0.4875 -0.96187,-0.8225 -1.48487,-1.005 -0.5225,-0.18 -1.3515,-0.27125 -2.48588,-0.27125 l -1.00137,0 0,10.09775 -4.91313,0" /><path style="fill:#231f20;fill-opacity:1;fill-rule:nonzero;stroke:none" d="m 632.85467,273.28791 4.795,-0.46875 c 0.28875,1.59875 0.87375,2.77375 1.75625,3.52375 0.8825,0.75 2.0725,1.125 3.57,1.125 1.58625,0 2.78125,-0.33375 3.58625,-1.00125 0.805,-0.6675 1.20625,-1.4475 1.20625,-2.34125 0,-0.5725 -0.16875,-1.06 -0.50625,-1.4625 -0.33875,-0.40375 -0.93,-0.75375 -1.77375,-1.05125 -0.5775,-0.19875 -1.8925,-0.55125 -3.94625,-1.05875 -2.64125,-0.65125 -4.49375,-1.44875 -5.55875,-2.39625 -1.5,-1.33125 -2.24875,-2.95625 -2.24875,-4.8725 0,-1.2325 0.3525,-2.38625 1.05625,-3.45875 0.70375,-1.07375 1.71875,-1.89125 3.0425,-2.4525 1.325,-0.5625 2.925,-0.8425 4.79875,-0.8425 3.05875,0 5.36375,0.66625 6.90875,1.99625 1.54625,1.33 2.36,3.10625 2.43625,5.3275 l -4.9125,0.215 c -0.21125,-1.2425 -0.66375,-2.13625 -1.35875,-2.68 -0.69375,-0.54375 -1.73625,-0.81625 -3.125,-0.81625 -1.4325,0 -2.55375,0.29125 -3.365,0.875 -0.5225,0.37375 -0.78375,0.875 -0.78375,1.50125 0,0.5725 0.24375,1.06125 0.7325,1.46875 0.62125,0.5175 2.13125,1.0575 4.52875,1.62 2.3975,0.5625 4.17,1.14375 5.31875,1.74375 1.14875,0.60125 2.0475,1.42125 2.695,2.4625 0.65,1.04125 0.975,2.3275 0.975,3.85875 0,1.3875 -0.38875,2.6875 -1.16375,3.9 -0.77625,1.21212 -1.87375,2.11212 -3.295,2.7015 -1.41875,0.58925 -3.1875,0.88425 -5.305,0.88425 -3.08375,0 -5.45125,-0.707 -7.10375,-2.12063 -1.6525,-1.41387 -2.63875,-3.47262 -2.96,-6.18012" /><path style="fill:#231f20;fill-opacity:1;fill-rule:nonzero;stroke:none" d="m 656.66967,281.13941 4.91357,0 0,-24.19925 -4.91357,0 0,24.19925 z" /><path style="fill:#231f20;fill-opacity:1;fill-rule:nonzero;stroke:none" d="m 671.79092,281.13941 0,-20.09775 -7.2425,0 0,-4.10125 19.3775,0 0,4.10125 -7.2225,0 0,20.09775 -4.9125,0" /><path style="fill:#231f20;fill-opacity:1;fill-rule:nonzero;stroke:none" d="m 693.77217,254.73291 2.29,-4.94125 5.225,0 -4.56,4.94125 -2.955,0 z m -6.675,26.4065 0,-24.199 18.06625,0 0,4.10125 -13.15375,0 0,5.35125 12.235,0 0,4.1025 -12.235,0 0,6.5425 13.62375,0 0,4.1015 -18.53625,0" /></g></g></svg> 